<svg viewBox="0 0 16.1667 14.3893" fill="none" xmlns="http://www.w3.org/2000/svg">
  <g>
    <path d="M11.0496 3.43178C10.0762 1.82644 8.31713 0.75 6.30291 0.75C3.23624 0.75 0.750022 3.23622 0.750022 6.30378C0.750022 7.31356 1.0238 8.25844 1.4958 9.07444C1.82469 9.69222 1.4558 11.1518 0.750022 11.8567C1.70736 11.9082 2.96958 11.4762 3.53224 11.1109C3.90647 11.3269 4.50113 11.614 5.27802 11.7607C5.37758 11.7793 5.48424 11.7758 5.58558 11.7891" stroke="currentColor" stroke-width="1.5" stroke-linecap="round" stroke-linejoin="round"/>
    <path d="M11.4167 5.63533C13.6256 5.63533 15.4167 7.42644 15.4167 9.63533C15.4167 10.3633 15.2194 11.0433 14.8798 11.6318C14.6425 12.0762 14.9091 13.1278 15.4167 13.6362C14.7269 13.6736 13.8185 13.3616 13.4122 13.0993C13.1429 13.2549 12.7145 13.4611 12.1545 13.5678C11.9154 13.6131 11.6682 13.6371 11.4158 13.6371C9.20602 13.6371 7.4158 11.846 7.4158 9.63711C7.4158 7.42733 9.20691 5.63711 11.4158 5.63711L11.4167 5.63533Z" stroke="currentColor" stroke-width="1.5" stroke-linecap="round" stroke-linejoin="round"/>
  </g>
</svg>
