<svg viewBox="0 0 21.5 21.5" fill="none" xmlns="http://www.w3.org/2000/svg">
  <path d="M2.75 7.75C2.21957 7.75 1.71086 7.96071 1.33579 8.33579C0.960714 8.71086 0.75 9.21957 0.75 9.75V11.75C0.75 12.2804 0.960714 12.7891 1.33579 13.1642C1.71086 13.5393 2.21957 13.75 2.75 13.75H6.75C7.01522 13.75 7.26957 13.8554 7.45711 14.0429C7.64464 14.2304 7.75 14.4848 7.75 14.75V18.75C7.75 19.2804 7.96071 19.7891 8.33579 20.1642C8.71086 20.5393 9.21957 20.75 9.75 20.75H11.75C12.2804 20.75 12.7891 20.5393 13.1642 20.1642C13.5393 19.7891 13.75 19.2804 13.75 18.75V14.75C13.75 14.4848 13.8554 14.2304 14.0429 14.0429C14.2304 13.8554 14.4848 13.75 14.75 13.75H18.75C19.2804 13.75 19.7891 13.5393 20.1642 13.1642C20.5393 12.7891 20.75 12.2804 20.75 11.75V9.75C20.75 9.21957 20.5393 8.71086 20.1642 8.33579C19.7891 7.96071 19.2804 7.75 18.75 7.75H14.75C14.4848 7.75 14.2304 7.64464 14.0429 7.45711C13.8554 7.26957 13.75 7.01522 13.75 6.75V2.75C13.75 2.21957 13.5393 1.71086 13.1642 1.33579C12.7891 0.960714 12.2804 0.75 11.75 0.75H9.75C9.21957 0.75 8.71086 0.960714 8.33579 1.33579C7.96071 1.71086 7.75 2.21957 7.75 2.75V6.75C7.75 7.01522 7.64464 7.26957 7.45711 7.45711C7.26957 7.64464 7.01522 7.75 6.75 7.75H2.75Z" stroke="currentColor" stroke-width="1.5" stroke-linecap="round" stroke-linejoin="round"/>
</svg>
