<svg width="16" height="16" viewBox="0 0 16 16" fill="none" xmlns="http://www.w3.org/2000/svg">
  <g clip-path="url(#clip0_259_4965)">
    <path d="M8.55339 1.45325C8.37968 1.37401 8.19098 1.33301 8.00006 1.33301C7.80913 1.33301 7.62043 1.37401 7.44672 1.45325L1.73339 4.05325C1.61509 4.10541 1.51451 4.19084 1.4439 4.29915C1.37329 4.40746 1.33569 4.53396 1.33569 4.66325C1.33569 4.79254 1.37329 4.91904 1.4439 5.02734C1.51451 5.13565 1.61509 5.22108 1.73339 5.27325L7.45339 7.87991C7.6271 7.95915 7.8158 8.00015 8.00672 8.00015C8.19765 8.00015 8.38635 7.95915 8.56006 7.87991L14.2801 5.27991C14.3984 5.22775 14.4989 5.14231 14.5695 5.03401C14.6402 4.9257 14.6778 4.7992 14.6778 4.66991C14.6778 4.54062 14.6402 4.41412 14.5695 4.30582C14.4989 4.19751 14.3984 4.11208 14.2801 4.05991L8.55339 1.45325Z" stroke="currentColor" stroke-linecap="round" stroke-linejoin="round"/>
    <path d="M1.33325 8C1.33294 8.12751 1.3692 8.25244 1.43773 8.35997C1.50627 8.46749 1.6042 8.55311 1.71992 8.60667L7.45325 11.2133C7.62605 11.2916 7.81356 11.3321 8.00325 11.3321C8.19294 11.3321 8.38045 11.2916 8.55325 11.2133L14.2733 8.61333C14.3913 8.56029 14.4913 8.47406 14.5611 8.36516C14.631 8.25625 14.6676 8.12937 14.6666 8" stroke="currentColor" stroke-linecap="round" stroke-linejoin="round"/>
    <path d="M1.33325 11.3335C1.33294 11.461 1.3692 11.5859 1.43773 11.6935C1.50627 11.801 1.6042 11.8866 1.71992 11.9402L7.45325 14.5468C7.62605 14.6251 7.81356 14.6656 8.00325 14.6656C8.19294 14.6656 8.38045 14.6251 8.55325 14.5468L14.2733 11.9468C14.3913 11.8938 14.4913 11.8076 14.5611 11.6987C14.631 11.5897 14.6676 11.4629 14.6666 11.3335" stroke="currentColor" stroke-linecap="round" stroke-linejoin="round"/>
  </g>
  <defs>
    <clipPath id="clip0_259_4965">
      <rect width="16" height="16" fill="white"/>
    </clipPath>
  </defs>
</svg>
