<svg width="16" height="16" viewBox="0 0 16 16" fill="none" xmlns="http://www.w3.org/2000/svg">
  <path d="M10.0002 5.55566H13.5558C14.0464 5.55566 14.4447 5.95389 14.4447 6.44455V13.5557C14.4447 14.0463 14.0464 14.4446 13.5558 14.4446H9.11133V6.44455C9.11133 5.95389 9.50955 5.55566 10.0002 5.55566Z" stroke="currentColor" stroke-linecap="round" stroke-linejoin="round"/>
  <path d="M11.3335 7.77783H12.2224" stroke="currentColor" stroke-linecap="round" stroke-linejoin="round"/>
  <path d="M11.3335 10H12.2224" stroke="currentColor" stroke-linecap="round" stroke-linejoin="round"/>
  <path d="M11.3335 12.2222H12.2224" stroke="currentColor" stroke-linecap="round" stroke-linejoin="round"/>
  <path d="M2.44455 7.77783H6.00011C6.49078 7.77783 6.889 8.17605 6.889 8.66672V14.4445H2.44455C1.95389 14.4445 1.55566 14.0463 1.55566 13.5556V8.66672C1.55566 8.17605 1.95389 7.77783 2.44455 7.77783Z" stroke="currentColor" stroke-linecap="round" stroke-linejoin="round"/>
  <path d="M3.77783 10H4.66672" stroke="currentColor" stroke-linecap="round" stroke-linejoin="round"/>
  <path d="M3.77783 12.2222H4.66672" stroke="currentColor" stroke-linecap="round" stroke-linejoin="round"/>
  <path d="M4.66675 5.55542V3.95364C4.66675 3.58031 4.89964 3.24787 5.24986 3.11898L10.1387 1.32698C10.7192 1.11453 11.3334 1.54386 11.3334 2.16164V3.3332" stroke="currentColor" stroke-linecap="round" stroke-linejoin="round"/>
  <path d="M6.88892 14.4443H9.11114" stroke="currentColor" stroke-linecap="round" stroke-linejoin="round"/>
</svg>
