<svg viewBox="0 0 14.7243 14.7244" fill="none" xmlns="http://www.w3.org/2000/svg">
  <g>
    <path d="M4.2709 10.4541C6.24223 12.3788 8.78357 13.5494 11.8336 13.9621C12.5049 14.0528 13.1436 13.6308 13.3149 12.9748L13.9742 10.4554L9.72957 8.63411L8.02423 10.3148C7.2869 9.86877 6.6009 9.34211 5.97957 8.74477C5.38223 8.12344 4.85557 7.43744 4.40957 6.70011L6.09023 4.99477L4.2689 0.750107L1.74957 1.40944C1.09423 1.58077 0.671566 2.21944 0.762232 2.89077C1.17557 5.94077 2.34557 8.48277 4.27023 10.4534L4.2709 10.4541Z" stroke="currentColor" stroke-width="1.5" stroke-miterlimit="10" stroke-linecap="round" stroke-linejoin="round"/>
    <path d="M8.6409 0.750107C11.5862 0.750107 13.9742 3.13811 13.9742 6.08344" stroke="currentColor" stroke-width="1.5" stroke-miterlimit="10" stroke-linecap="round" stroke-linejoin="round"/>
    <path d="M8.6409 3.41677C10.1136 3.41677 11.3076 4.61077 11.3076 6.08344" stroke="currentColor" stroke-width="1.5" stroke-miterlimit="10" stroke-linecap="round" stroke-linejoin="round"/>
  </g>
</svg>
