<svg viewBox="0 0 17.5 21.5034" fill="none" xmlns="http://www.w3.org/2000/svg">
  <path d="M16.75 11.7504C16.75 16.7504 13.25 19.2505 9.09 20.7005C8.87216 20.7743 8.63554 20.7707 8.42 20.6905C4.25 19.2505 0.75 16.7504 0.75 11.7504V4.75045C0.75 4.48523 0.855357 4.23088 1.04289 4.04334C1.23043 3.85581 1.48478 3.75045 1.75 3.75045C3.75 3.75045 6.25 2.55045 7.99 1.03045C8.20185 0.849448 8.47135 0.75 8.75 0.75C9.02865 0.75 9.29815 0.849448 9.51 1.03045C11.26 2.56045 13.75 3.75045 15.75 3.75045C16.0152 3.75045 16.2696 3.85581 16.4571 4.04334C16.6446 4.23088 16.75 4.48523 16.75 4.75045V11.7504Z" stroke="currentColor" stroke-width="1.5" stroke-linecap="round" stroke-linejoin="round"/>
</svg>
